HIERARCHY
ROOT hip
{
  OFFSET 0 0 0
  CHANNELS 6 Xposition Yposition Zposition Zrotation Yrotation Xrotation
  JOINT abdomen
  {
    OFFSET 0 20.6881 -0.73152
    CHANNELS 3 Zrotation Xrotation Yrotation
    JOINT chest
    {
      OFFSET 0 11.7043 -0.48768
      CHANNELS 3 Zrotation Xrotation Yrotation
      JOINT neck
      {
        OFFSET 0 22.1894 -2.19456
        CHANNELS 3 Zrotation Xrotation Yrotation
        JOINT head
        {
          OFFSET -0.24384 7.07133 1.2192
          CHANNELS 3 Zrotation Xrotation Yrotation
          JOINT leftEye
          {
            OFFSET 4.14528 8.04674 8.04672
            CHANNELS 3 Zrotation Xrotation Yrotation
            End Site
            {
              OFFSET 1 0 0
            }
          }
          JOINT rightEye
          {
            OFFSET -3.6576 8.04674 8.04672
            CHANNELS 3 Zrotation Xrotation Yrotation
            End Site
            {
              OFFSET 1 0 0
            }
          }
        }
      }
      JOINT rCollar
      {
        OFFSET -2.68224 19.2634 -4.8768
        CHANNELS 3 Zrotation Xrotation Yrotation
        JOINT rShldr
        {
          OFFSET -8.77824 -1.95073 1.46304
          CHANNELS 3 Zrotation Xrotation Yrotation
          JOINT rForeArm
          {
            OFFSET -28.1742 -1.7115 0.48768
            CHANNELS 3 Zrotation Xrotation Yrotation
            JOINT rHand
            {
              OFFSET -22.5879 0.773209 7.07136
              CHANNELS 3 Zrotation Xrotation Yrotation
              JOINT rThumb1
              {
                OFFSET -1.2192 -0.487915 3.41376
                CHANNELS 3 Zrotation Xrotation Yrotation
                JOINT rThumb2
                {
                  OFFSET -3.37035 -0.52449 3.41376
                  CHANNELS 3 Zrotation Xrotation Yrotation
                  End Site
                  {
                    OFFSET -1.78271 -1.18214 1.43049
                  }
                }
              }
              JOINT rIndex1
              {
                OFFSET -7.75947 0.938293 5.60832
                CHANNELS 3 Zrotation Xrotation Yrotation
                JOINT rIndex2
                {
                  OFFSET -2.54057 -0.884171 1.56538
                  CHANNELS 3 Zrotation Xrotation Yrotation
                  End Site
                  {
                    OFFSET -1.62519 -0.234802 1.16502
                  }
                }
              }
              JOINT rMid1
              {
                OFFSET -8.24714 1.18213 3.41376
                CHANNELS 3 Zrotation Xrotation Yrotation
                JOINT rMid2
                {
                  OFFSET -3.10165 -0.590103 1.0647
                  CHANNELS 3 Zrotation Xrotation Yrotation
                  End Site
                  {
                    OFFSET -2.48547 -0.328903 0.83742
                  }
                }
              }
              JOINT rRing1
              {
                OFFSET -8.82822 0.546677 1.51678
                CHANNELS 3 Zrotation Xrotation Yrotation
                JOINT rRing2
                {
                  OFFSET -2.60934 -0.819778 -0.0198488
                  CHANNELS 3 Zrotation Xrotation Yrotation
                  End Site
                  {
                    OFFSET -2.33842 -0.294052 0.168128
                  }
                }
              }
              JOINT rPinky1
              {
                OFFSET -8.27202 -0.0477905 -0.4584
                CHANNELS 3 Zrotation Xrotation Yrotation
                JOINT rPinky2
                {
                  OFFSET -1.82734 -0.647385 -0.700984
                  CHANNELS 3 Zrotation Xrotation Yrotation
                  End Site
                  {
                    OFFSET -1.69225 -0.51767 -0.607171
                  }
                }
              }
            }
          }
        }
      }
      JOINT lCollar
      {
        OFFSET 2.68224 19.2634 -4.8768
        CHANNELS 3 Zrotation Xrotation Yrotation
        JOINT lShldr
        {
          OFFSET 8.77824 -1.95073 1.46304
          CHANNELS 3 Zrotation Xrotation Yrotation
          JOINT lForeArm
          {
            OFFSET 28.1742 -1.7115 0.48768
            CHANNELS 3 Zrotation Xrotation Yrotation
            JOINT lHand
            {
              OFFSET 22.5879 0.773209 7.07136
              CHANNELS 3 Zrotation Xrotation Yrotation
              JOINT lThumb1
              {
                OFFSET 1.2192 -0.487915 3.41376
                CHANNELS 3 Zrotation Xrotation Yrotation
                JOINT lThumb2
                {
                  OFFSET 3.37035 -0.52449 3.41376
                  CHANNELS 3 Zrotation Xrotation Yrotation
                  End Site
                  {
                    OFFSET 1.78271 -1.18214 1.43049
                  }
                }
              }
              JOINT lIndex1
              {
                OFFSET 7.75947 0.938293 5.60832
                CHANNELS 3 Zrotation Xrotation Yrotation
                JOINT lIndex2
                {
                  OFFSET 2.54057 -0.884171 1.56538
                  CHANNELS 3 Zrotation Xrotation Yrotation
                  End Site
                  {
                    OFFSET 1.62519 -0.234802 1.16502
                  }
                }
              }
              JOINT lMid1
              {
                OFFSET 8.24714 1.18213 3.41376
                CHANNELS 3 Zrotation Xrotation Yrotation
                JOINT lMid2
                {
                  OFFSET 3.10165 -0.590103 1.0647
                  CHANNELS 3 Zrotation Xrotation Yrotation
                  End Site
                  {
                    OFFSET 2.48547 -0.328903 0.83742
                  }
                }
              }
              JOINT lRing1
              {
                OFFSET 8.82822 0.546677 1.51678
                CHANNELS 3 Zrotation Xrotation Yrotation
                JOINT lRing2
                {
                  OFFSET 2.60934 -0.819778 -0.0198488
                  CHANNELS 3 Zrotation Xrotation Yrotation
                  End Site
                  {
                    OFFSET 2.33842 -0.294052 0.168128
                  }
                }
              }
              JOINT lPinky1
              {
                OFFSET 8.27202 -0.0477905 -0.4584
                CHANNELS 3 Zrotation Xrotation Yrotation
                JOINT lPinky2
                {
                  OFFSET 1.82734 -0.647385 -0.700984
                  CHANNELS 3 Zrotation Xrotation Yrotation
                  End Site
                  {
                    OFFSET 1.69225 -0.51767 -0.607171
                  }
                }
              }
            }
          }
        }
      }
    }
  }
  JOINT rButtock
  {
    OFFSET -8.77824 4.35084 1.2192
    CHANNELS 3 Zrotation Xrotation Yrotation
    JOINT rThigh
    {
      OFFSET 0 -1.70687 -2.19456
      CHANNELS 3 Zrotation Xrotation Yrotation
      JOINT rShin
      {
        OFFSET 0 -36.8199 0.73152
        CHANNELS 3 Zrotation Xrotation Yrotation
        JOINT rFoot
        {
          OFFSET 0.73152 -45.1104 -5.12064
          CHANNELS 3 Zrotation Xrotation Yrotation
          End Site
          {
            OFFSET -1.1221 -3.69964 12.103
          }
        }
      }
    }
  }
  JOINT lButtock
  {
    OFFSET 8.77824 4.35084 1.2192
    CHANNELS 3 Zrotation Xrotation Yrotation
    JOINT lThigh
    {
      OFFSET 0 -1.70687 -2.19456
      CHANNELS 3 Zrotation Xrotation Yrotation
      JOINT lShin
      {
        OFFSET 0 -36.8199 0.73152
        CHANNELS 3 Zrotation Xrotation Yrotation
        JOINT lFoot
        {
          OFFSET -0.73152 -45.1104 -5.12064
          CHANNELS 3 Zrotation Xrotation Yrotation
          End Site
          {
            OFFSET 1.1221 -3.69964 12.103
          }
        }
      }
    }
  }
}
MOTION
Frames:	4
Frame Time:	0.03333
2.6643000252533966 67.79279708862305 9.440000004906324 -11.92280041328906 -22.746900011784454 12.678099807181995 6.430869844150772 11.162399721859773 12.94440034518433 -1.1167800053615726 -9.048450197325302 3.637690023170268 -3.158549905016346 11.638900185342896 -1.384400050534189 6.713599975314749 -27.98930071865373 -0.8534129802469055 -0.0 0.0 0.0 -0.0 0.0 0.0 -8.625330302944886e-14 -2.7104401048346773e-13 -1.6382300166180966e-13 47.58209962644904 46.14439944767472 18.74640015830004 -28.408500163868677 -34.466200061394865 74.46190270877861 -0.023882300046638407 -4.399029865610433 -0.6194800150301737 1.0178499550796625e-09 2.770329919203034e-08 -1.8431900793850475e-09 1.7649200080135793e-09 4.787090063560512e-08 -3.181629907730519e-09 1.0178599937053758e-09 2.770329919203034e-08 -1.8431900793850475e-09 7.730910121524428 5.474879855648998 0.41731399283890674 1.0178499550796625e-09 2.770329919203034e-08 -1.8431900793850475e-09 2.90554006136521 0.9651829962377875 0.10290200252939893 1.0178599937053758e-09 2.7703200594835214e-08 -1.8431900793850475e-09 10.278599710243157 0.7318009818271524 0.025912300303053633 1.0178499550796625e-09 2.770329919203034e-08 -1.8431700021336207e-09 2.221669932038622 -0.7334870246959406 -0.20891999872313852 -8.637509867676436e-14 -2.710419964298288e-13 -1.6397599694124865e-13 -56.35950059675156 30.64389984335608 -21.279199934628142 24.039899217897474 -19.172800330447476 -49.730501478930705 0.050181199728885344 -6.370160134599937 0.8990319737959793 -1.1062600323449714e-09 -9.232259684977779e-10 7.927299965486734e-10 -1.9184400153017985e-09 -1.6413199755755567e-09 1.3644199904763387e-09 -1.1062600323449714e-09 -9.232200049577502e-10 7.92737003708206e-10 -7.730910121524428 5.474879855648998 -0.41731399283890674 -1.1062499937192581e-09 -9.232170231877363e-10 7.9273501586153e-10 -2.90554006136521 0.9651829962377875 -0.10290200252939893 -1.106269971578351e-09 -9.232200049577502e-10 7.927309904720114e-10 -10.278599710243157 0.7318009818271524 -0.025912300303053633 -1.1062499937192581e-09 -9.232209988810881e-10 7.927249772358166e-10 -2.221669932038622 -0.7334870246959406 0.20891999872313852 -2.0321699793705798e-16 0.0 -3.882510030490358e-19 -3.7912898785464533 3.042599973335975 -3.1557800498644943 -0.10064299750269656 38.364598832071344 1.8325399677578327 -17.297599214577154 -14.913800014992882 -37.32969881431477 2.0321699793705798e-16 0.0 3.882510030490358e-19 70.44000045752996 -58.85369785143804 68.36520072354436 6.885820207028859 82.27749693072744 -7.335829781816088 6.5617798111041745 -10.276500280847024 19.28050046082753
3.1651000201691204 68.17139983177185 10.700000006545451 -11.065599719621414 -21.851100211569772 13.08070018516652 5.614280174627551 10.41260033779599 12.991499622153446 -1.0611999813208284 -9.04822992372457 3.623720151883476 -3.1284900290357087 11.685099584888862 -1.6970800276001432 6.641699854582494 -28.291399985643395 -1.4860699776507675 -0.0 0.0 0.0 -0.0 0.0 0.0 -1.7559200580556187e-14 -3.578149980952404e-13 1.6051899823177583e-14 47.43129929485892 45.523299610594194 19.329899803999645 -28.43069998621851 -35.26780130767131 75.78879672864781 -0.0232763992347508 -4.351160057925576 -0.6127050009820499 1.266609982634632e-09 4.392639898353684e-08 -3.0859299991352955e-09 2.199110051014222e-09 7.596090120747184e-08 -5.330169934448142e-09 1.266609982634632e-09 4.392639898353684e-08 -3.0859299991352955e-09 7.730910121524428 5.474879855648998 0.41731399283890674 1.2666000434012524e-09 4.392639898353684e-08 -3.0859299991352955e-09 2.90554006136521 0.9651829962377875 0.10290200252939893 1.266609982634632e-09 4.392639898353684e-08 -3.0859299991352955e-09 10.278599710243157 0.7318009818271524 0.025912300303053633 1.2666000434012524e-09 4.392639898353684e-08 -3.085920059901916e-09 2.221669932038622 -0.7334870246959406 -0.20891999872313852 -1.7825700218723307e-14 -3.5781198914763524e-13 1.575370007269054e-14 -56.09570161553274 31.343000440758154 -21.120199960939416 24.355399316038703 -19.776500260617393 -50.75440147702898 0.05555500113579163 -6.71084015200324 0.9475269572333045 -2.964650081945067e-09 -5.035249821054755e-09 1.443120033083807e-09 -5.133660158592589e-09 -8.792579805812262e-09 2.480240074447453e-09 -2.964650081945067e-09 -5.035239881821376e-09 1.4431299723171867e-09 -7.730910121524428 5.474879855648998 -0.41731399283890674 -2.964650081945067e-09 -5.035229942587997e-09 1.443120033083807e-09 -2.90554006136521 0.9651829962377875 -0.10290200252939893 -2.9646600211784462e-09 -5.035239881821376e-09 1.443120033083807e-09 -10.278599710243157 0.7318009818271524 -0.025912300303053633 -2.964650081945067e-09 -5.035239881821376e-09 1.443120033083807e-09 -2.221669932038622 -0.7334870246959406 0.20891999872313852 -2.0321699793705798e-16 0.0 -3.882510030490358e-19 -3.8590099235066604 2.524240055194194 -1.9490499749501449 -0.1275440043736959 38.820298808210836 1.7551499757584743 -15.523800794672136 -12.342899735927157 -37.18879884192657 2.0321699793705798e-16 0.0 3.882510030490358e-19 67.84469932765437 -59.93129679679095 66.97740190684615 6.490920013559878 81.8823021853505 -6.943540001270521 7.242099949609648 -10.289000380801793 21.17899935195676
3.7074000284064823 68.5778021812439 11.940000042159227 -10.339899804270374 -20.591500630498118 12.946200100030628 5.156599870515574 10.439899750134884 12.896999686118088 -1.1720999486053272 -8.997910212561793 3.57303993479857 -3.139680013330305 11.888599948567514 -2.074729937990022 6.618010197219951 -28.825700071204103 -2.2299199467823514 -0.0 0.0 0.0 -0.0 0.0 0.0 6.183770120091503e-14 -3.450910079728123e-13 2.6124299456807897e-13 47.6541991033277 44.78640074632528 19.42730000911132 -28.430199674861807 -36.09230076314024 77.16329716703201 -0.0202135996706356 -4.0414199436887825 -0.5689510226023599 1.4753900402742697e-09 4.3691400520342225e-08 -3.987740100254774e-09 2.5606800792503496e-09 7.557109878682103e-08 -6.888080360463986e-09 1.4753900402742697e-09 4.3691400520342225e-08 -3.9877599787215334e-09 7.730910121524428 5.474879855648998 0.41731399283890674 1.4753800016485564e-09 4.3691400520342225e-08 -3.987750039488154e-09 2.90554006136521 0.9651829962377875 0.10290200252939893 1.4753900402742697e-09 4.3691400520342225e-08 -3.987750039488154e-09 10.278599710243157 0.7318009818271524 0.025912300303053633 1.4753699630228431e-09 4.3691400520342225e-08 -3.987750039488154e-09 2.221669932038622 -0.7334870246959406 -0.20891999872313852 6.169549809443884e-14 -3.450899888131396e-13 2.6103799787962526e-13 -56.08359852032348 32.16270168833514 -21.04019966273835 24.680599990348643 -20.427700741370163 -51.83039874302152 0.06760860081894476 -7.424059604193373 1.0492599568779999 -3.3779200265283835e-09 -4.972340039732748e-09 2.0721500607322347e-09 -5.852089813581596e-09 -8.714170386388813e-09 3.5640699406477393e-09 -3.3779200265283835e-09 -4.972340039732748e-09 2.0721599999656145e-09 -7.730910121524428 5.474879855648998 -0.41731399283890674 -3.3779200265283835e-09 -4.972340039732748e-09 2.0721500607322347e-09 -2.90554006136521 0.9651829962377875 -0.10290200252939893 -3.377929965761763e-09 -4.972340039732748e-09 2.0721599999656145e-09 -10.278599710243157 0.7318009818271524 -0.025912300303053633 -3.3779100872950038e-09 -4.972340039732748e-09 2.0721500607322347e-09 -2.221669932038622 -0.7334870246959406 0.20891999872313852 -2.0321699793705798e-16 0.0 -3.882510030490358e-19 -3.95413012609602 1.7162699776818229 -1.0405300146233716 -0.17520199615300366 41.14269972979857 1.6521499760227416 -13.396799632407417 -9.474180157160427 -36.33120028973977 2.0321699793705798e-16 0.0 3.882510030490358e-19 63.63489857233867 -61.02679766795847 63.542697848732665 6.021729986922783 81.30090282282067 -6.43483007320891 7.3762798696281955 -10.656600308158232 21.26460040527724
4.34390000887106 68.92619729042053 12.980000044990447 -9.61889991284195 -19.007200686473222 12.375099808995536 4.3339799977288775 10.906800382739554 12.667400315847171 -1.227269947852459 -8.919119711617464 3.469390106596334 -3.1537499895771197 12.168099827140898 -2.481889894132353 6.554789966262313 -29.317501012201703 -3.0507799786407115 -0.0 0.0 0.0 -0.0 0.0 0.0 1.171120019767233e-13 -2.0355500216668196e-13 3.944379913542441e-13 48.13929962874951 43.97090006508785 19.160999471108987 -28.403599503139194 -36.93950035231569 78.59299919428825 -0.019088699530846236 -3.9412099695072946 -0.5547839829641369 1.1506899958290057e-09 2.945620147418001e-08 -3.3356798749425368e-09 1.9954800071502102e-09 5.0953599191184053e-08 -5.762530164583605e-09 1.1506899958290057e-09 2.945620147418001e-08 -3.335700150978631e-09 7.730910121524428 5.474879855648998 0.41731399283890674 1.1506799572032922e-09 2.945620147418001e-08 -3.3356898141759165e-09 2.90554006136521 0.9651829962377875 0.10290200252939893 1.150700034454719e-09 2.945620147418001e-08 -3.3356898141759165e-09 10.278599710243157 0.7318009818271524 0.025912300303053633 1.1506700179699127e-09 2.945620147418001e-08 -3.3356898141759165e-09 2.221669932038622 -0.7334870246959406 -0.20891999872313852 1.1711400389750897e-13 -2.0355600919350142e-13 3.9433901153745873e-13 -56.218501586620405 33.0624015265659 -21.06660005142774 24.973399954783336 -21.038900219248752 -52.854899797766755 0.08233090015213536 -8.158170043733636 1.1544499927380738 -2.617289976887048e-09 -4.318130157025177e-09 1.5953099721611717e-09 -4.5337101411814495e-09 -7.560339890988864e-09 2.7423599225495763e-09 -2.617289976887048e-09 -4.318130157025177e-09 1.595320010786885e-09 -7.730910121524428 5.474879855648998 -0.41731399283890674 -2.617289976887048e-09 -4.318130157025177e-09 1.5953099721611717e-09 -2.90554006136521 0.9651829962377875 -0.10290200252939893 -2.617289976887048e-09 -4.318119820222462e-09 1.5953099721611717e-09 -10.278599710243157 0.7318009818271524 -0.025912300303053633 -2.6172800376536687e-09 -4.318130157025177e-09 1.5953000329277921e-09 -2.221669932038622 -0.7334870246959406 0.20891999872313852 -2.0321699793705798e-16 0.0 -3.882510030490358e-19 -4.368589846913801 -0.12962499759515483 -0.19226599649466403 -0.3315660104099948 45.44769966176591 1.5392700009308795 -9.917320269189917 -5.2367299423108715 -33.64920015363462 2.0321699793705798e-16 0.0 3.882510030490358e-19 57.812203286037814 -62.18829865707582 58.481998956805946 5.541930115183721 80.5613982413834 -5.839830096494296 7.1654097318350995 -11.071099729450566 20.42979931699265
